<?xml version="1.0" encoding="UTF-8"?>
<svg version="1.1" xmlns="http://www.w3.org/2000/svg" width="471" height="140">
<path d="M0 0 C33.66 0 67.32 0 102 0 C102 7.59 102 15.18 102 23 C100.22753906 23.03738281 98.45507812 23.07476563 96.62890625 23.11328125 C94.27341744 23.17897217 91.91794961 23.24541842 89.5625 23.3125 C88.39783203 23.33505859 87.23316406 23.35761719 86.03320312 23.38085938 C76.5045019 23.67611491 68.57677824 24.71407776 61.4375 31.390625 C56.57150814 36.83842023 55.88130194 43.05587139 55.8581543 50.06860352 C55.85111984 51.27078018 55.84408539 52.47295685 55.83683777 53.71156311 C55.83059135 55.65064796 55.83059135 55.65064796 55.82421875 57.62890625 C55.81377823 58.98307564 55.80235297 60.33723776 55.78999329 61.69139099 C55.73784012 67.42093538 55.68966217 73.15035067 55.67407227 78.88012695 C55.66388903 82.39398899 55.63430638 85.90725621 55.59275246 89.42088127 C55.574729 91.38577984 55.57706883 93.35083212 55.58000183 95.31581116 C55.41113634 107.8519213 52.3834116 118.4591154 44 128 C33.21843722 138.26909361 22.12809051 140.50380776 7.78515625 140.2734375 C-3.87354973 139.81409313 -12.41250239 134.06612342 -20.25 125.75 C-29.23821384 114.73380477 -30.25875433 101.59942985 -29 88 C-26.46228254 77.61942296 -19.92772897 67.97432147 -11 62 C0.83977325 55.85593814 0.83977325 55.85593814 7.01171875 55.90234375 C8.03591919 55.90609009 8.03591919 55.90609009 9.08081055 55.90991211 C10.37112183 55.92356812 10.37112183 55.92356812 11.6875 55.9375 C14.430625 55.958125 17.17375 55.97875 20 56 C20 63.59 20 71.18 20 79 C17.999375 79.2475 15.99875 79.495 13.9375 79.75 C7.81379964 80.71514843 2.86574003 81.53465898 -1.26953125 86.53515625 C-4.35224612 91.31717684 -5.73549778 96.48523186 -4.55859375 102.109375 C-2.78387613 107.50451656 -0.1715913 111.35867065 5.0078125 114.0390625 C9.88531323 115.99346175 13.78555509 116.36808682 18.85546875 114.9296875 C23.48995587 112.92056558 26.94378577 109.92038951 29.375 105.5 C30.59715704 100.61137186 31.12495416 95.92882297 31.1418457 90.89379883 C31.14888016 89.70849075 31.15591461 88.52318268 31.16316223 87.30195618 C31.16732651 86.03313095 31.17149078 84.76430573 31.17578125 83.45703125 C31.19304355 81.44049775 31.21032996 79.42396415 31.22898388 77.40744305 C31.27430749 72.45907521 31.31225452 67.51081998 31.32592773 62.56225586 C31.33609965 59.10559489 31.36564956 55.64954047 31.40724754 52.19312096 C31.42528927 50.25975231 31.42292962 48.32622709 31.41999817 46.39277649 C31.53875353 37.74357911 33.13003388 30.73993225 37 23 C24.79 23 12.58 23 0 23 C0 15.41 0 7.82 0 0 Z " fill="#005E7C" transform="translate(29,0)"/>
<path d="M0 0 C4.62 0 9.24 0 14 0 C24.55786133 31.67358398 24.55786133 31.67358398 25.26602173 33.80978394 C25.7844492 35.35678911 26.31309475 36.90038798 26.84896851 38.44143677 C27.123992 39.23943695 27.3990155 40.03743713 27.68237305 40.85961914 C27.93448044 41.58113663 28.18658783 42.30265411 28.44633484 43.04603577 C29 45 29 45 29 48 C25.04 48 21.08 48 17 48 C16.34 45.03 15.68 42.06 15 39 C9.72 39 4.44 39 -1 39 C-1.66 41.97 -2.32 44.94 -3 48 C-7.29 48 -11.58 48 -16 48 C-14.36686197 42.93120353 -12.73100753 37.8632943 -11.09277344 32.79614258 C-10.53736247 31.0769751 -9.9826579 29.35757922 -9.42871094 27.63793945 C-6.44062082 18.36353341 -3.4158079 9.12816625 0 0 Z M6 13 C5.32844651 15.26949102 4.6626037 17.5403961 4 19.8125 C3.62875 21.07707031 3.2575 22.34164062 2.875 23.64453125 C1.87383491 26.90587415 1.87383491 26.90587415 2 30 C5.3 30 8.6 30 12 30 C11.38490238 27.35149716 10.75850592 24.70660095 10.125 22.0625 C9.95097656 21.30775391 9.77695313 20.55300781 9.59765625 19.77539062 C9.12755935 17.83406455 8.5695703 15.91450456 8 14 C7.34 13.67 6.68 13.34 6 13 Z " fill="#2E2E2E" transform="translate(187,24)"/>
<path d="M0 0 C3.80911792 1.99370853 6.10194573 4.34051569 7.7734375 8.2734375 C7.7734375 9.5934375 7.7734375 10.9134375 7.7734375 12.2734375 C4.45232668 13.22785381 1.22699489 14.0290319 -2.2265625 14.2734375 C-5.0390625 12.3984375 -5.0390625 12.3984375 -7.2265625 10.2734375 C-9.9370232 9.93751242 -9.9370232 9.93751242 -12.2265625 10.2734375 C-12.2265625 11.9234375 -12.2265625 13.5734375 -12.2265625 15.2734375 C-11.6696875 15.51578125 -11.1128125 15.758125 -10.5390625 16.0078125 C-8.09463142 17.0813802 -5.66013763 18.17549895 -3.2265625 19.2734375 C-2.48792969 19.59699219 -1.74929687 19.92054687 -0.98828125 20.25390625 C3.3195677 22.24152017 6.54117647 23.90192633 8.7734375 28.2734375 C9.41621178 33.17182082 9.44963311 37.6007431 7.5859375 42.2109375 C3.86156953 46.4490114 0.59571786 49.07749814 -5.15234375 49.4765625 C-17.68912544 49.65008197 -17.68912544 49.65008197 -22.6875 44.87890625 C-25.53402373 41.77289279 -26.2265625 40.59169895 -26.2265625 36.2734375 C-22.9265625 35.2834375 -19.6265625 34.2934375 -16.2265625 33.2734375 C-15.2365625 34.5934375 -14.2465625 35.9134375 -13.2265625 37.2734375 C-9.93611019 38.25357223 -8.07023581 38.60646644 -4.8515625 37.3359375 C-4.3153125 36.9853125 -3.7790625 36.6346875 -3.2265625 36.2734375 C-3.19982264 34.31920974 -3.19982264 34.31920974 -4.2265625 32.2734375 C-7.29075193 30.85769552 -7.29075193 30.85769552 -10.9765625 29.8359375 C-16.40040941 28.20764873 -19.51899986 26.60579311 -23.2265625 22.2734375 C-25.31972968 18.08710315 -24.64967645 12.83234137 -24.2265625 8.2734375 C-22.50295294 4.494755 -21.01108179 2.86182697 -17.7265625 0.3984375 C-11.99812799 -1.44284502 -5.79413016 -1.89071616 0 0 Z " fill="#2E2E2E" transform="translate(245.2265625,23.7265625)"/>
<path d="M0 0 C9.24 0 18.48 0 28 0 C28 3.63 28 7.26 28 11 C22.39 11 16.78 11 11 11 C11 13.97 11 16.94 11 20 C15.95 20 20.9 20 26 20 C26 23.63 26 27.26 26 31 C21.05 31 16.1 31 11 31 C11 36.61 11 42.22 11 48 C7.37 48 3.74 48 0 48 C0 32.16 0 16.32 0 0 Z " fill="#2E2E2E" transform="translate(144,24)"/>
<path d="M0 0 C11.55 0 23.1 0 35 0 C35 7.59 35 15.18 35 23 C23.45 23 11.9 23 0 23 C0 15.41 0 7.82 0 0 Z " fill="#005E7C" transform="translate(96,56)"/>
<path d="M0 0 C10.56 0 21.12 0 32 0 C32 3.63 32 7.26 32 11 C28.37 11 24.74 11 21 11 C21 23.21 21 35.42 21 48 C17.37 48 13.74 48 10 48 C10 35.79 10 23.58 10 11 C6.7 11 3.4 11 0 11 C0 7.37 0 3.74 0 0 Z " fill="#2E2E2E" transform="translate(259,24)"/>
<path d="M0 0 C2.31 0 4.62 0 7 0 C7 6.6 7 13.2 7 20 C14.26 20 21.52 20 29 20 C29 13.4 29 6.8 29 0 C30.98 0 32.96 0 35 0 C35 15.84 35 31.68 35 48 C33.02 48 31.04 48 29 48 C29 40.74 29 33.48 29 26 C21.74 26 14.48 26 7 26 C7 33.26 7 40.52 7 48 C4.69 48 2.38 48 0 48 C0 32.16 0 16.32 0 0 Z " fill="#005E7C" transform="translate(436,24)"/>
<path d="M0 0 C9.9 0 19.8 0 30 0 C30 1.98 30 3.96 30 6 C22.41 6 14.82 6 7 6 C7 10.62 7 15.24 7 20 C14.26 20 21.52 20 29 20 C29 21.98 29 23.96 29 26 C21.74 26 14.48 26 7 26 C7 31.28 7 36.56 7 42 C14.92 42 22.84 42 31 42 C30.67 43.98 30.34 45.96 30 48 C20.1 48 10.2 48 0 48 C0 32.16 0 16.32 0 0 Z " fill="#005E7C" transform="translate(352,24)"/>
<path d="M0 0 C4.0766691 3.97213912 6.76234533 7.6361853 7.4375 13.375 C5.1275 13.375 2.8175 13.375 0.4375 13.375 C0.004375 12.42625 -0.42875 11.4775 -0.875 10.5 C-2.35552201 7.17458063 -2.35552201 7.17458063 -5.5625 5.375 C-7.71040929 5.05899811 -7.71040929 5.05899811 -10 5.125 C-10.76183594 5.11984375 -11.52367187 5.1146875 -12.30859375 5.109375 C-14.82772654 5.4062572 -16.41494034 6.03853583 -18.5625 7.375 C-23.34469594 14.10549799 -23.25198072 21.35021054 -22.5625 29.375 C-21.35436118 33.61661781 -19.57015915 36.42492138 -16.375 39.4375 C-12.26717015 40.80677662 -8.6960104 40.66527334 -4.5625 39.375 C-2.24112055 37.11165503 -0.9942533 35.23850661 0.4375 32.375 C2.7475 32.375 5.0575 32.375 7.4375 32.375 C5.98746187 39.09790407 3.5658647 42.26517264 -2.25 46.1875 C-8.20014052 48.32056924 -14.03556968 48.37345999 -19.875 45.8125 C-25.07348258 42.82993626 -27.59966266 38.66746985 -29.875 33.25 C-31.55820565 23.76284091 -31.66817918 13.99941144 -26.4609375 5.59765625 C-20.155596 -2.72132657 -9.28002325 -4.23299306 0 0 Z " fill="#005E7C" transform="translate(419.5625,25.625)"/>
<path d="M0 0 C2.73324118 1.36389281 3.91206917 2.64438573 6 5 C6.65234375 7.171875 6.65234375 7.171875 7 9 C1.64088204 10.66923346 1.64088204 10.66923346 -1 11 C-2.75 9.625 -2.75 9.625 -4 8 C-5.32 8 -6.64 8 -8 8 C-8 9.32 -8 10.64 -8 12 C-7.33613281 12.15855469 -6.67226562 12.31710938 -5.98828125 12.48046875 C3.7791411 15.06134969 3.7791411 15.06134969 7 20 C7.93826934 24.64908234 7.64942329 27.92509248 5.1875 32 C1.20659595 35.6396837 -3.10875312 35.39251322 -8.26171875 35.3515625 C-12.59800537 34.79483526 -14.16771275 33.27949049 -17 30 C-17.875 27.6875 -17.875 27.6875 -18 26 C-13.56923077 23.90769231 -13.56923077 23.90769231 -10.6875 24.375 C-9.8521875 24.684375 -9.8521875 24.684375 -9 25 C-9 25.66 -9 26.32 -9 27 C-7.02 27 -5.04 27 -3 27 C-3 25.68 -3 24.36 -3 23 C-3.90492188 22.76216797 -3.90492188 22.76216797 -4.828125 22.51953125 C-8.63571092 21.40796181 -11.48163109 20.4298669 -14.5625 17.875 C-16.57169499 13.85661002 -16.81463399 10.40860748 -16 6 C-11.92417827 -0.52131476 -7.29070015 -1.00484382 0 0 Z " fill="#2E2E2E" transform="translate(159,81)"/>
<path d="M0 0 C11.55 0 23.1 0 35 0 C35 1.98 35 3.96 35 6 C30.38 6 25.76 6 21 6 C21 19.86 21 33.72 21 48 C18.69 48 16.38 48 14 48 C14 34.14 14 20.28 14 6 C9.38 6 4.76 6 0 6 C0 4.02 0 2.04 0 0 Z " fill="#005E7C" transform="translate(311,24)"/>
<path d="M0 0 C3.12578143 1.6720747 5.39281175 3.7856235 7 7 C8.03994013 16.92400011 8.03994013 16.92400011 5.953125 21.08984375 C3.58625574 23.93704825 1.53109015 25.80723685 -2.171875 26.2734375 C-9.98876369 26.58137554 -9.98876369 26.58137554 -13.5625 23.625 C-17.63954121 19.23434023 -17.3874166 15.83575658 -17.359375 9.99609375 C-16.82285181 5.52312326 -15.3330708 3.93627666 -12 1 C-8.27533151 -0.86233425 -4.05504687 -0.57130829 0 0 Z M-7 8 C-8.73647948 9.67488528 -8.73647948 9.67488528 -10 12 C-9.66390749 14.75691443 -9.66390749 14.75691443 -8 17 C-5.45224694 17.89386164 -5.45224694 17.89386164 -3 18 C-1.26352052 16.32511472 -1.26352052 16.32511472 0 14 C-0.33609251 11.24308557 -0.33609251 11.24308557 -2 9 C-4.54775306 8.10613836 -4.54775306 8.10613836 -7 8 Z " fill="#2E2E2E" transform="translate(381,90)"/>
<path d="M0 0 C3.12578143 1.6720747 5.39281175 3.7856235 7 7 C8.03994013 16.92400011 8.03994013 16.92400011 5.953125 21.08984375 C3.58625574 23.93704825 1.53109015 25.80723685 -2.171875 26.2734375 C-9.98876369 26.58137554 -9.98876369 26.58137554 -13.5625 23.625 C-17.63954121 19.23434023 -17.3874166 15.83575658 -17.359375 9.99609375 C-16.82285181 5.52312326 -15.3330708 3.93627666 -12 1 C-8.27533151 -0.86233425 -4.05504687 -0.57130829 0 0 Z M-7 8 C-8.73647948 9.67488528 -8.73647948 9.67488528 -10 12 C-9.66390749 14.75691443 -9.66390749 14.75691443 -8 17 C-5.45224694 17.89386164 -5.45224694 17.89386164 -3 18 C-1.26352052 16.32511472 -1.26352052 16.32511472 0 14 C-0.33609251 11.24308557 -0.33609251 11.24308557 -2 9 C-4.54775306 8.10613836 -4.54775306 8.10613836 -7 8 Z " fill="#2E2E2E" transform="translate(203,90)"/>
<path d="M0 0 C2.5695298 2.17979512 3.8489714 3.90623991 4.31567383 7.28613281 C4.3938049 9.97262004 4.34869736 12.62679305 4.25 15.3125 C4.23195313 16.24384766 4.21390625 17.17519531 4.1953125 18.13476562 C4.14834888 20.42424197 4.08269475 22.71158184 4 25 C1.69 25 -0.62 25 -3 25 C-3.06058594 24.01257813 -3.12117188 23.02515625 -3.18359375 22.0078125 C-3.26738281 20.72648437 -3.35117187 19.44515625 -3.4375 18.125 C-3.55931641 16.21074219 -3.55931641 16.21074219 -3.68359375 14.2578125 C-3.79206027 11.11699848 -3.79206027 11.11699848 -5 9 C-5.99 9 -6.98 9 -8 9 C-9.4807848 11.9615696 -9.35314037 14.83506295 -9.5625 18.125 C-9.64628906 19.40632813 -9.73007812 20.68765625 -9.81640625 22.0078125 C-9.90728516 23.48894531 -9.90728516 23.48894531 -10 25 C-12.31 25 -14.62 25 -17 25 C-17 17.08 -17 9.16 -17 1 C-4.17699115 -0.42477876 -4.17699115 -0.42477876 0 0 Z " fill="#2E2E2E" transform="translate(425,90)"/>
<path d="M0 0 C2.31 0 4.62 0 7 0 C7.06058594 0.98742187 7.12117188 1.97484375 7.18359375 2.9921875 C7.26738281 4.27351563 7.35117187 5.55484375 7.4375 6.875 C7.51871094 8.15117188 7.59992188 9.42734375 7.68359375 10.7421875 C7.79206027 13.88300152 7.79206027 13.88300152 9 16 C9.99 16 10.98 16 12 16 C13.4807848 13.0384304 13.35314037 10.16493705 13.5625 6.875 C13.64628906 5.59367187 13.73007812 4.31234375 13.81640625 2.9921875 C13.87699219 2.00476563 13.93757813 1.01734375 14 0 C16.31 0 18.62 0 21 0 C21 7.92 21 15.84 21 24 C18.2775 24.268125 15.555 24.53625 12.75 24.8125 C11.89889648 24.91022705 11.04779297 25.0079541 10.17089844 25.10864258 C6.39022696 25.40369972 4.61034852 25.44457485 1.46875 23.15625 C-0.64127829 18.62193389 -0.43125586 14.61975074 -0.25 9.6875 C-0.23195313 8.75615234 -0.21390625 7.82480469 -0.1953125 6.86523438 C-0.14834888 4.57575803 -0.08269475 2.28841816 0 0 Z " fill="#2E2E2E" transform="translate(259,91)"/>
<path d="M0 0 C3.0625 2.5 3.0625 2.5 5 5 C4.67 5.66 4.34 6.32 4 7 C0.35526801 7.89093449 -2.42742531 8.23666047 -6 7 C-5.46375 7.268125 -4.9275 7.53625 -4.375 7.8125 C-3.59125 8.204375 -2.8075 8.59625 -2 9 C-0.948125 9.495 0.10375 9.99 1.1875 10.5 C4 12 4 12 5 14 C5.55925433 20.93475366 5.55925433 20.93475366 3.6875 24.5 C-0.68348533 26.93961972 -5.12107625 26.75060365 -10 26 C-13.1875 24 -13.1875 24 -15 22 C-14.505 20.515 -14.505 20.515 -14 19 C-7.375 17.875 -7.375 17.875 -4 19 C-3.67 18.34 -3.34 17.68 -3 17 C-4.0725 16.9175 -5.145 16.835 -6.25 16.75 C-10 16 -10 16 -12.4375 14.4375 C-14.35688449 11.4432602 -14.64731668 9.42067941 -14.4375 5.90625 C-14 4 -14 4 -12.0625 1.5 C-7.95379558 -0.51242666 -4.49157198 -0.98278519 0 0 Z " fill="#2E2E2E" transform="translate(464,90)"/>
<path d="M0 0 C2.31 0 4.62 0 7 0 C7 1.65 7 3.3 7 5 C8.65 5 10.3 5 12 5 C12 7.31 12 9.62 12 12 C10.35 12 8.7 12 7 12 C7.06006078 13.45947705 7.1488689 14.91779272 7.25 16.375 C7.29640625 17.18710938 7.3428125 17.99921875 7.390625 18.8359375 C7.7922092 21.18838927 7.7922092 21.18838927 10.046875 22.2890625 C10.69140625 22.52367188 11.3359375 22.75828125 12 23 C12 25.31 12 27.62 12 30 C4.70072993 30.486618 4.70072993 30.486618 1.75 28.4375 C-0.64897651 25.09606843 -0.40063108 22.81703913 -0.25 18.75 C-0.21390625 17.48671875 -0.1778125 16.2234375 -0.140625 14.921875 C-0.09421875 13.95765625 -0.0478125 12.9934375 0 12 C-0.99 12 -1.98 12 -3 12 C-3 9.69 -3 7.38 -3 5 C-2.01 5 -1.02 5 0 5 C0 3.35 0 1.7 0 0 Z " fill="#2E2E2E" transform="translate(303,86)"/>
<path d="M0 0 C2.31 0 4.62 0 7 0 C7 10.89 7 21.78 7 33 C4.69 33 2.38 33 0 33 C0 22.11 0 11.22 0 0 Z " fill="#2E2E2E" transform="translate(230,82)"/>
<path d="M0 0 C2.31 0 4.62 0 7 0 C7 7.92 7 15.84 7 24 C4.69 24 2.38 24 0 24 C0 16.08 0 8.16 0 0 Z " fill="#2E2E2E" transform="translate(336,91)"/>
<path d="M0 0 C1.2065625 0.0309375 1.2065625 0.0309375 2.4375 0.0625 C3.5625 2.375 3.5625 2.375 4.4375 5.0625 C3.4475 6.5475 3.4475 6.5475 2.4375 8.0625 C-0.125 8.3125 -0.125 8.3125 -2.5625 8.0625 C-3.5625 7.0625 -3.5625 7.0625 -3.6875 4.0625 C-3.52180824 0.08589776 -3.52180824 0.08589776 0 0 Z " fill="#2E2E2E" transform="translate(339.5625,80.9375)"/>
</svg>
